<svg width="72" height="72" viewBox="0 0 72 72" fill="none" xmlns="http://www.w3.org/2000/svg">
<g id="Vector">
<path d="M71.2482 17.6104V3.84871C71.2482 0.437044 67.1082 -1.28796 64.6932 1.12704L1.1365 64.722C-1.2785 67.137 0.408162 71.277 3.81983 71.277H55.9148V29.1104C55.9148 22.747 61.0515 17.6104 67.4148 17.6104H71.2482Z" fill="#000000"/>
<path d="M63.5815 29.1104V52.1104C63.5815 54.2187 65.3065 55.9437 67.4148 55.9437C69.5232 55.9437 71.2482 54.2187 71.2482 52.1104V29.1104C71.2482 27.002 69.5232 25.277 67.4148 25.277C65.3065 25.277 63.5815 27.002 63.5815 29.1104ZM32.9148 71.277V32.9437L1.1365 64.722C-1.2785 67.137 0.408162 71.277 3.81983 71.277H32.9148ZM63.5815 71.277H71.2482V63.6104H63.5815V71.277Z" fill="#000000"/>
</g>
</svg>
