<svg width="26" height="21" viewBox="0 0 26 21" fill="none" xmlns="http://www.w3.org/2000/svg">
<path d="M22.0222 0.516143C20.4925 0.756763 19.3066 1.8109 18.9572 3.22598C18.9113 3.39785 18.877 3.77023 18.877 4.05669C18.877 5.13374 19.2608 5.98164 20.0801 6.70923C20.7332 7.29359 21.5352 7.59723 22.4232 7.59723C23.3112 7.59723 24.1133 7.29359 24.7664 6.70923C25.5857 5.98164 25.9695 5.13374 25.9695 4.05669C25.9695 3.48951 25.8836 3.07702 25.6773 2.60724C25.2763 1.69632 24.3081 0.877072 23.3399 0.624995C22.956 0.527601 22.2915 0.470311 22.0222 0.516143ZM22.9721 4.5184C23.3675 4.61006 21.2346 4.53506 21.5096 4.81005C22.0366 5.33713 21.4165 3.77215 21.2504 4.49974C21.0498 5.39347 24.2093 4.113 23.2984 4.26769C22.1583 4.4682 23.207 5.71004 22.9721 4.5184C22.8404 3.88247 22.7518 5.00389 23.2503 4.49974C23.7601 3.98986 22.2617 4.35798 22.9721 4.5184Z" fill="url(#paint0_linear_70_57)"/>
<path d="M2.77371 3.38159C1.63363 3.53054 0.699794 4.32688 0.356052 5.43831C0.258659 5.75341 0.25293 6.14298 0.25293 11.935C0.25293 17.7271 0.258659 18.1167 0.356052 18.4318C0.648233 19.3828 1.37009 20.1046 2.31538 20.3968C2.64194 20.4942 3.08307 20.4999 11.6824 20.4999C20.2415 20.4999 20.7228 20.4942 21.0436 20.3968C21.7597 20.1734 22.3212 19.738 22.6993 19.1078C23.129 18.4031 23.106 18.6724 23.129 13.5965L23.1462 9.04187H22.3842C21.8113 9.04187 21.5306 9.01323 21.2498 8.93302C21.0436 8.87573 20.8259 8.81844 20.7629 8.80125C20.6884 8.78406 20.5223 8.87 20.3046 9.03041C18.7634 10.1705 13.0573 14.3183 12.8797 14.4329C12.112 14.9141 11.3673 14.9313 10.5938 14.4902C10.485 14.4272 8.48555 12.9834 6.15384 11.2819C3.82212 9.58613 1.85706 8.15387 1.78831 8.10231C1.66227 8.01064 1.66227 7.97627 1.65654 6.95077C1.65654 5.95392 1.668 5.87372 1.79404 5.60445C1.95445 5.26071 2.17216 5.04873 2.5159 4.89405C2.77371 4.77947 2.85391 4.77374 10.1069 4.77374H17.44V4.05761V3.34148L10.1928 3.34721C6.2054 3.35294 2.8711 3.37013 2.77371 3.38159ZM5.71843 12.7371C7.92411 14.347 9.91781 15.762 10.147 15.8823C10.6683 16.1573 11.035 16.2433 11.6824 16.2433C12.3183 16.2433 12.6907 16.1573 13.2005 15.8938C13.4183 15.7792 15.412 14.3641 17.6291 12.7486C19.8462 11.1387 21.6681 9.81529 21.6852 9.81529C21.6967 9.81529 21.7082 11.6429 21.7082 13.8714C21.7082 18.426 21.7196 18.2656 21.2957 18.6896C20.8488 19.125 21.5707 19.0963 11.6824 19.0963C1.89716 19.0963 2.51017 19.1192 2.11487 18.7354C2.01174 18.6323 1.86279 18.4203 1.79404 18.2656L1.65654 17.9792V13.8944C1.65654 11.6543 1.668 9.81529 1.68519 9.81529C1.69665 9.81529 3.51275 11.133 5.71843 12.7371Z" fill="#4D4D4D"/>
<defs>
<linearGradient id="paint0_linear_70_57" x1="22.4232" y1="7.59723" x2="22.4232" y2="0.500092" gradientUnits="userSpaceOnUse">
<stop stop-color="#B3903E"/>
<stop offset="1" stop-color="#FAE892"/>
</linearGradient>
</defs>
</svg>
