<svg width="25" height="21" viewBox="0 0 25 21" fill="none" xmlns="http://www.w3.org/2000/svg">
<path d="M5.00173 0.532167C4.15105 0.665922 3.41807 1.19024 3.01145 1.95532C2.66904 2.60805 1.06398 6.37994 1.01048 6.6528C0.978378 6.8347 0.962327 8.78218 0.973028 11.9655C0.989078 16.6577 0.999779 17.0054 1.09073 17.2729C1.31009 17.9417 1.71136 18.45 2.28918 18.7924C2.95795 19.199 2.59414 19.1723 8.26 19.1937L13.332 19.2097L13.1394 18.9529C13.0324 18.8138 12.8344 18.5088 12.6953 18.2788L12.4492 17.8668H7.91759C2.91515 17.8668 3.08636 17.8775 2.72789 17.5298C2.63159 17.4335 2.49248 17.2355 2.42828 17.091L2.29988 16.8235V11.9923V7.16642H10.9993H19.6987L19.6613 6.8133C19.6399 6.6207 19.581 6.33713 19.5275 6.18198C19.3938 5.79676 17.7406 2.12118 17.5801 1.84297C17.243 1.27049 16.7722 0.890631 16.0659 0.623121L15.7556 0.505417L10.5124 0.500065C7.62868 0.494715 5.15154 0.510767 5.00173 0.532167ZM9.68316 3.82254V5.82887H6.20552C4.2955 5.82887 2.72789 5.81816 2.72789 5.80746C2.72789 5.77536 3.99589 2.91836 4.1243 2.6562C4.32225 2.26563 4.64327 1.98207 5.02848 1.86437C5.10338 1.84297 6.17877 1.82157 7.42537 1.82157L9.68316 1.81622V3.82254ZM15.868 1.96067C16.3014 2.19073 16.4565 2.44754 17.1948 4.12215C17.5747 4.98888 17.8957 5.72721 17.9064 5.75931C17.9278 5.81281 17.2162 5.82887 14.4502 5.82887H10.9672V3.82254V1.81087L13.3106 1.82692C15.6058 1.84297 15.654 1.84297 15.868 1.96067Z" fill="#4D4D4D"/>
<path d="M18.3499 8.55597C16.9749 8.70578 15.7711 9.27825 14.7866 10.252C13.631 11.4023 13.0371 12.8415 13.0371 14.5214C13.0371 16.2014 13.631 17.6406 14.7866 18.7909C15.6373 19.6309 16.6057 20.1499 17.8148 20.412C18.3659 20.5297 19.5697 20.5297 20.1743 20.4174C21.6884 20.1231 22.9296 19.3313 23.8659 18.0686C24.631 17.0307 25.0002 15.8804 25.0002 14.5214C25.0002 13.7778 24.9253 13.2802 24.7112 12.6168C24.1495 10.8726 22.7263 9.42806 21.0036 8.84488C20.2492 8.58807 19.1524 8.47037 18.3499 8.55597ZM20.1957 9.99518C21.8435 10.4285 23.0901 11.6805 23.5503 13.3444C23.7161 13.9543 23.7161 15.0886 23.5503 15.6985C23.0901 17.3624 21.8596 18.5929 20.1957 19.0531C19.8479 19.144 19.6232 19.1654 19.0186 19.1654C18.4141 19.1654 18.1894 19.144 17.8416 19.0531C16.1777 18.5929 14.9471 17.3624 14.487 15.6985C14.3961 15.3507 14.3747 15.126 14.3747 14.5214C14.3747 13.9169 14.3961 13.6922 14.487 13.3444C14.9792 11.5574 16.3221 10.3055 18.168 9.92027C18.6762 9.81327 19.6393 9.85072 20.1957 9.99518Z" fill="#4D4D4D"/>
<path d="M21.1369 12.6036C21.0299 12.6464 20.3986 13.2296 19.6816 13.9358C18.9861 14.626 18.3869 15.1931 18.3494 15.1931C18.3173 15.1931 18.0017 14.9202 17.6593 14.5832C16.9423 13.8877 16.7604 13.7914 16.4501 13.9412C16.0649 14.1231 15.9258 14.5511 16.1452 14.856C16.204 14.9363 16.6588 15.4071 17.1564 15.8993C18.0659 16.8035 18.205 16.8998 18.4993 16.8249C18.5902 16.8035 19.1948 16.2471 20.2113 15.2306C21.0727 14.3692 21.8324 13.5987 21.8913 13.5185C22.1106 13.2135 21.9555 12.7481 21.581 12.5929C21.367 12.502 21.367 12.502 21.1369 12.6036Z" fill="#4D4D4D"/>
</svg>
